#!OML:ASF F:\VICON\USERDATA\INSTALL\rory3\rory3.ASF
:FULLY-SPECIFIED
:DEGREES
449
root -11.0193 17.6605 11.351 -25.6774 -95.8592 23.3329
lowerback 10.51 3.03814 3.41245
upperback 0.809526 4.41967 0.423191
thorax -4.81226 2.09705 -2.10276
lowerneck -21.2106 -5.43372 -10.9496
upperneck 27.4121 -6.48986 7.08336
head 13.3933 -3.17002 3.44678
rclavicle 1.5791e-014 -8.44835e-016
rhumerus -32.0733 -12.3571 -80.6066
rradius 32.4165
rwrist 5.38735
rhand -15.6624 10.3149
rfingers 7.12502
rthumb 10.5258 -19.4016
lclavicle 1.5791e-014 -8.44835e-016
lhumerus -35.5023 6.77319 83.5232
lradius 30.1586
lwrist -6.41648
lhand -16.2218 25.1458
lfingers 7.12502
lthumb 9.98613 54.8889
rfemur 11.287 1.97244 27.2396
rtibia 22.9733
rfoot -16.1491 -1.6636
rtoes -0.208676
lfemur -18.0321 -3.87338 -15.9577
ltibia 15.2369
lfoot 2.77103 -3.13813
ltoes -7.74207
450
root -11.165 17.6813 11.362 -20.2713 -96.0235 17.92
lowerback 10.3921 3.11253 2.83444
upperback 0.714087 4.44814 0.317133
thorax -4.88033 2.12185 -1.89192
lowerneck -21.149 -5.30083 -10.9867
upperneck 27.7165 -6.34108 7.12961
head 13.4936 -3.11428 3.50651
rclavicle -5.84241e-014 5.889e-015
rhumerus -32.3886 -12.2655 -80.65
rradius 32.2024
rwrist 5.16736
rhand -15.8282 10.0569
rfingers 7.12502
rthumb 10.3659 -19.6676
lclavicle -5.84241e-014 5.889e-015
lhumerus -35.7107 7.14948 83.3193
lradius 30.0889
lwrist -6.76832
lhand -16.1731 24.9998
lfingers 7.12502
lthumb 10.0332 54.7407
rfemur 10.9687 2.45637 26.7337
rtibia 24.4683
rfoot -15.5418 -1.74264
rtoes -2.5981
lfemur -17.4424 -3.4279 -16.5989
ltibia 14.7644
lfoot 4.00915 -4.24987
ltoes -4.04756
451
root -11.3113 17.6942 11.3783 -15.3519 -96.1303 12.9013
lowerback 10.3265 3.10997 2.38215
upperback 0.678072 4.38513 0.157607
thorax -4.90572 2.09933 -1.79486
lowerneck -21.1555 -5.12042 -10.9089
upperneck 28.0269 -6.12353 7.08024
head 13.5948 -3.02761 3.52092
rclavicle 2.48186e-014 -3.10601e-015
rhumerus -32.5698 -12.3202 -80.7018
rradius 31.8244
rwrist 5.24079
rhand -15.6834 9.90301
rfingers 7.12502
rthumb 10.5056 -19.8145
lclavicle 2.48186e-014 -3.10601e-015
lhumerus -35.831 7.40566 83.108
lradius 29.9666
lwrist -6.86128
lhand -15.7869 25.0064
lfingers 7.12502
lthumb 10.4057 54.7289
rfemur 10.6426 2.5325 26.0247
rtibia 26.1246
rfoot -14.9462 -1.34909
rtoes -3.84339
lfemur -16.7197 -2.68133 -17.3928
ltibia 14.3474
lfoot 4.98009 -5.07403
ltoes -3.42504
452
root -11.4563 17.7082 11.3974 -10.9683 -96.0791 8.29356
lowerback 10.397 3.05553 1.9445
upperback 0.68551 4.25591 0.00914752
thorax -4.96332 2.04272 -1.69203
lowerneck -21.2082 -4.97082 -10.8006
upperneck 28.3113 -5.93822 6.98916
head 13.6967 -2.95526 3.50633
rclavicle 8.04845e-015 5.72748e-015
rhumerus -32.742 -12.8266 -80.5684
rradius 31.3077
rwrist 5.96217
rhand -15.6601 10.1651
rfingers 7.12502
rthumb 10.528 -19.5513
lclavicle 8.04845e-015 5.72748e-015
lhumerus -35.9685 7.5838 82.9882
lradius 29.8561
lwrist -6.6769
lhand -15.8158 25.2148
lfingers 7.12502
lthumb 10.3779 54.9387
rfemur 10.3294 2.14475 25.166
rtibia 27.9029
rfoot -14.2238 -0.648428
rtoes -4.72868
lfemur -15.8829 -2.12915 -18.2193
ltibia 14.0695
lfoot 5.56999 -5.18625
ltoes -5.36668
453
root -11.6023 17.7244 11.4152 -7.63601 -95.9194 4.72669
lowerback 10.4764 2.94085 1.59076
upperback 0.679179 4.05769 -0.104458
thorax -5.0382 1.95029 -1.59048
lowerneck -21.1247 -4.83204 -10.718
upperneck 28.4391 -5.77284 6.93
head 13.7085 -2.88967 3.50268
rclavicle -4.72906e-014 -1.49089e-015
rhumerus -33.0087 -13.2733 -80.4605
rradius 30.9014
rwrist 6.4678
rhand -15.7094 10.2916
rfingers 7.12502
rthumb 10.4805 -19.4272
lclavicle -4.72906e-014 -1.49089e-015
lhumerus -36.1729 7.82141 82.8021
lradius 29.7465
lwrist -6.68576
lhand -15.913 25.0168
lfingers 7.12502
lthumb 10.2841 54.7454
rfemur 9.95782 1.8348 24.5209
rtibia 29.7878
rfoot -13.2671 -0.2641
rtoes -6.2172
lfemur -15.0369 -1.88351 -18.9015
ltibia 13.864
lfoot 5.91974 -5.08185
ltoes -5.1695
454
root -11.7448 17.7437 11.4345 -5.67985 -95.7959 2.60851
lowerback 10.524 2.80726 1.43358
upperback 0.648977 3.8582 -0.197243
thorax -5.10727 1.85343 -1.57492
lowerneck -21.0674 -4.61625 -10.4369
upperneck 28.5656 -5.51039 6.714
head 13.7016 -2.78034 3.41923
rclavicle -1.95882e-014 4.53943e-015
rhumerus -33.2519 -13.5885 -80.4497
rradius 30.56
rwrist 6.64779
rhand -15.6949 10.0566
rfingers 7.12502
rthumb 10.4945 -19.6614
lclavicle -1.95882e-014 4.53943e-015
lhumerus -36.3473 8.20378 82.4943
lradius 29.5879
lwrist -6.91854
lhand -15.7775 24.8819
lfingers 7.12502
lthumb 10.4148 54.604
rfemur 9.44037 1.7884 24.1428
rtibia 31.7495
rfoot -11.9978 -0.0106198
rtoes -6.72692
lfemur -14.3215 -1.54577 -19.4002
ltibia 13.7183
lfoot 5.98559 -5.75555
ltoes -3.25006
